# xmcd
#
# Track frame offsets: 
#        150
#        16056
#        32071
#        46365
#        63958
#        80845
#        114896
#        131129
#        144197
#        156105
#        174530
#        190767
#        209512
#        225613
#        239798
#        254679
#        281181
#        298228
#
# Disc length: 4174 seconds
#
# Revision: 0
# Processed by: cddbd v1.5.2PL0 Copyright (c) Steve Scherf et al.
# Submitted via: ExactAudioCopy v0.95b4
#
DISCID=0f104c12
DTITLE=Various Artist - Tears Full Of Soul - Tear Jerkers From The Heart And 
DTITLE=Soul
DYEAR=2007
DGENRE=Soul
TTITLE0=Jimmy James - I'm Glad
TTITLE1=Odds &Ends - Talk That Talk
TTITLE2=Brown Sugar Feat. Clydie King - Weep For Me
TTITLE3=Lee Charles - I Just Want To Be Loved
TTITLE4=Black Ivory - Time Is Love
TTITLE5=Gloria Barnes - Old Before My Time
TTITLE6=Ray Gant and The Arabian Knights - Don'y Leave Me Baby
TTITLE7=Soul Generation - I Wonder What She's Doing
TTITLE8=Pat Dennis - It's So Easy
TTITLE9=Brook Benton - You Were Gone
TTITLE10=The Trumains - Girl Don't Let Me Down
TTITLE11=Lezli Valentine - Love Is A Two-Way Street
TTITLE12=Charles Brimmer - Please Let Me Come Home
TTITLE13=The Carstaires - Story Of Our Love
TTITLE14=Linda Jones - I Can't Make It Alone
TTITLE15=Tommy Keith - On The Real Side
TTITLE16=The Dynamics - Let Me Be Your Friend
TTITLE17=Charen Cotten - A Little Bit Of Love
EXTD=
EXTT0=
EXTT1=
EXTT2=
EXTT3=
EXTT4=
EXTT5=
EXTT6=
EXTT7=
EXTT8=
EXTT9=
EXTT10=
EXTT11=
EXTT12=
EXTT13=
EXTT14=
EXTT15=
EXTT16=
EXTT17=
PLAYORDER=
